<svg xmlns="http://www.w3.org/2000/svg" viewBox="0 0 61.8749 38.7421"><path d="M6.3047 7.6875 C6.3047 6.7969 6.7969 6.3047 7.6641 6.3047 L54.2343 6.3047 C55.0781 6.3047 55.5937 6.7969 55.5937 7.6875 L55.5937 31.0781 C55.5937 31.9453 55.0781 32.4609 54.2343 32.4609 L7.6641 32.4609 C6.7969 32.4609 6.3047 31.9453 6.3047 31.0781 Z M8.6719 9.2109 L8.6719 29.5547 C8.6719 29.9062 8.8359 30.0937 9.1875 30.0937 L52.6874 30.0937 C53.039 30.0937 53.2265 29.9062 53.2265 29.5547 L53.2265 9.2109 C53.2265 8.8594 53.039 8.6719 52.6874 8.6719 L9.1875 8.6719 C8.8359 8.6719 8.6719 8.8594 8.6719 9.2109 Z M30.8437 6.3047 C35.9062 6.3047 39.9375 11.3906 39.9375 19.4062 C39.9375 27.3984 35.9062 32.4609 30.8437 32.4609 C25.9218 32.4609 21.9609 27.3984 21.9609 19.4062 C21.9609 11.3906 25.9218 6.3047 30.8437 6.3047 Z M30.8437 9.0703 C27.5156 9.0703 24.6797 13.0312 24.6797 19.4062 C24.6797 25.7578 27.5156 29.6953 30.8437 29.6953 C34.3125 29.6953 37.2422 25.7578 37.2422 19.4062 C37.2422 13.0312 34.3125 9.0703 30.8437 9.0703 Z M0 1.875 C0 0.75 0.75 0 1.875 0 L60.0234 0 C61.1484 0 61.8749 0.75 61.8749 1.875 L61.8749 36.8906 C61.8749 38.0156 61.1484 38.7421 60.0234 38.7421 L1.875 38.7421 C0.75 38.7421 0 38.0156 0 36.8906 Z M3.7734 4.4531 L3.7734 34.289 C3.7734 34.8047 3.9609 34.9687 4.4531 34.9687 L57.4218 34.9687 C57.9374 34.9687 58.1015 34.8047 58.1015 34.289 L58.1015 4.4531 C58.1015 3.9609 57.9374 3.7734 57.4218 3.7734 L4.4531 3.7734 C3.9609 3.7734 3.7734 3.9609 3.7734 4.4531 Z" fill="black"/></svg>