<svg xmlns="http://www.w3.org/2000/svg" viewBox="0 0 47.1562 47.1562"><path d="M0 15.8203 C0 14.6953 0.75 13.9219 1.875 13.9219 L4.2891 13.9219 L4.2891 6.1406 C4.2891 5.0156 5.0391 4.2891 6.1641 4.2891 L13.9219 4.2891 L13.9219 1.875 C13.9219 0.75 14.6953 0 15.8203 0 C16.9453 0 17.6953 0.75 17.6953 1.875 L17.6953 4.2891 L21.7031 4.2891 L21.7031 1.875 C21.7031 0.75 22.4531 0 23.5781 0 C24.7031 0 25.4765 0.75 25.4765 1.875 L25.4765 4.2891 L29.4609 4.2891 L29.4609 1.875 C29.4609 0.75 30.2109 0 31.3359 0 C32.4843 0 33.2343 0.75 33.2343 1.875 L33.2343 4.2891 L40.9921 4.2891 C42.1171 4.2891 42.8671 5.0156 42.8671 6.1406 L42.8671 13.9453 L45.2812 13.9453 C46.4062 13.9453 47.1562 14.7187 47.1562 15.8437 C47.1562 16.9687 46.4062 17.7187 45.2812 17.7187 L42.8671 17.7187 L42.8671 21.7265 L45.2812 21.7265 C46.4062 21.7265 47.1562 22.4765 47.1562 23.6015 C47.1562 24.7265 46.4062 25.5 45.2812 25.5 L42.8671 25.5 L42.8671 29.4843 L45.2812 29.4843 C46.4062 29.4843 47.1562 30.2578 47.1562 31.3828 C47.1562 32.5078 46.4062 33.2578 45.2812 33.2578 L42.8671 33.2578 L42.8671 40.9921 C42.8671 42.1171 42.1171 42.8671 40.9921 42.8671 L33.2343 42.8671 L33.2343 45.2578 C33.2343 46.3828 32.4843 47.1562 31.3359 47.1562 C30.2109 47.1562 29.4609 46.3828 29.4609 45.2578 L29.4609 42.8671 L25.4765 42.8671 L25.4765 45.2578 C25.4765 46.3828 24.7031 47.1562 23.5781 47.1562 C22.4531 47.1562 21.7031 46.3828 21.7031 45.2578 L21.7031 42.8671 L17.6953 42.8671 L17.6953 45.2578 C17.6953 46.3828 16.9453 47.1562 15.8203 47.1562 C14.6953 47.1562 13.9219 46.3828 13.9219 45.2578 L13.9219 42.8671 L6.1641 42.8671 C5.0391 42.8671 4.2891 42.1171 4.2891 40.9921 L4.2891 33.2343 L1.875 33.2343 C0.75 33.2343 0 32.4843 0 31.3593 C0 30.2343 0.75 29.4609 1.875 29.4609 L4.2891 29.4609 L4.2891 25.4765 L1.875 25.4765 C0.75 25.4765 0 24.7031 0 23.5781 C0 22.4531 0.75 21.7031 1.875 21.7031 L4.2891 21.7031 L4.2891 17.6953 L1.875 17.6953 C0.75 17.6953 0 16.9453 0 15.8203 Z M8.0625 8.7422 L8.0625 38.3906 C8.0625 38.9062 8.25 39.0937 8.7422 39.0937 L38.414 39.0937 C38.9062 39.0937 39.0937 38.9062 39.0937 38.3906 L39.0937 8.7422 C39.0937 8.2266 38.9062 8.0625 38.414 8.0625 L8.7422 8.0625 C8.25 8.0625 8.0625 8.2266 8.0625 8.7422 Z M14.8828 13.0781 L32.3203 13.0781 C33.5156 13.0781 34.0781 13.6406 34.0781 14.8828 L34.0781 32.2734 C34.0781 33.4922 33.5156 34.0547 32.3203 34.0547 L14.8828 34.0547 C13.6875 34.0547 13.1015 33.4922 13.1015 32.2734 L13.1015 14.8828 C13.1015 13.6406 13.6875 13.0781 14.8828 13.0781 Z M16.1719 16.7109 L16.1719 30.4218 C16.1719 30.7734 16.4062 30.9843 16.7344 30.9843 L30.4453 30.9843 C30.7968 30.9843 31.0078 30.7734 31.0078 30.4218 L31.0078 16.7109 C31.0078 16.3828 30.7968 16.1484 30.4453 16.1484 L16.7344 16.1484 C16.4062 16.1484 16.1719 16.3828 16.1719 16.7109 Z" fill="black"/></svg>