<svg xmlns="http://www.w3.org/2000/svg" viewBox="0 0 233.2029 205.3709"><path fill-rule="nonzero" d="M90.2343 15.7226 L90.2343 73.1445 C90.2343 77.6366 93.2616 80.5663 97.7538 80.5663 L135.5467 80.5663 C140.1366 80.5663 142.9686 77.6366 142.9686 73.1445 L142.9686 15.7226 Z M30.4687 21.4844 C30.4687 7.9101 38.6718 0 52.4414 0 L180.8592 0 C194.6287 0 202.7342 7.9101 202.7342 21.4844 L202.7342 99.0233 L122.4608 166.3084 C118.7499 169.4334 114.3554 169.3358 110.7421 166.3084 L30.4687 99.0233 Z M8.3984 101.0741 C11.1328 101.0741 13.3789 102.539 15.4297 104.1991 L113.1835 186.3279 C114.2577 187.2068 115.5272 187.6951 116.6014 187.6951 C117.7733 187.6951 118.9452 187.2068 120.0194 186.3279 L217.8709 104.1991 C219.824 102.539 222.0701 101.0741 224.8045 101.0741 C230.0779 101.0741 233.2029 104.8827 233.2029 108.8866 C233.2029 111.1327 232.324 113.4765 230.0779 115.2343 L128.3202 200.6834 C124.6093 203.8084 120.6054 205.3709 116.6014 205.3709 C112.5975 205.3709 108.5936 203.8084 104.8827 200.6834 L3.125 115.2343 C0.9766 113.4765 0 111.1327 0 108.8866 C0 104.8827 3.125 101.0741 8.3984 101.0741 Z M180.1756 152.9295 L204.6873 132.2264 L204.6873 176.2694 C204.6873 180.5662 201.9529 183.3006 197.6561 183.3006 L187.2068 183.3006 C183.0076 183.3006 180.1756 180.5662 180.1756 176.2694 Z" fill="black"/></svg>