<svg xmlns="http://www.w3.org/2000/svg" viewBox="0 0 24 24"><g transform="translate(0,24) scale(0.009375,-0.009375)"><path d="M1223 1997 c-35 -19 -774 -639 -780 -654 -17 -43 29 -89 73 -72 12 4
187 145 389 313 202 168 371 306 375 306 4 0 173 -138 375 -306 202 -168 377
-309 389 -313 26 -10 47 -4 64 17 28 37 15 59 -88 144 l-99 83 -1 148 c0 83
-5 157 -10 168 -9 16 -22 19 -79 19 -44 0 -72 -5 -79 -13 -6 -7 -12 -47 -14
-90 l-3 -76 -180 151 c-99 82 -193 159 -210 169 -34 21 -89 24 -122 6z M1196
1698 c-35 -29 -170 -141 -300 -248 l-236 -195 0 -308 c0 -350 1 -355 73 -388
39 -17 73 -19 550 -19 489 0 509 1 547 20 69 35 70 41 70 387 l0 308 -147 120
c-80 66 -203 167 -272 225 -170 142 -181 150 -202 150 -10 0 -47 -24 -83 -52z
m252 -594 c22 -15 22 -19 22 -235 l0 -219 -190 0 -190 0 0 219 c0 272 -16 251
190 251 116 0 150 -3 168 -16z" fill="black"/></g></svg>