<svg xmlns="http://www.w3.org/2000/svg" viewBox="0 0 242.9685 197.8514"><g transform="translate(0,197.8514) scale(1,-1)"><path fill-rule="nonzero" d="M30.664 45.2148 L164.0623 45.2148 C184.3748 45.2148 194.7264 55.371 194.7264 75.4882 L194.7264 167.578 C194.7264 187.6951 184.3748 197.8514 164.0623 197.8514 L30.664 197.8514 C10.1562 197.8514 0 187.6951 0 167.578 L0 75.4882 C0 55.2734 10.1562 45.2148 30.664 45.2148 Z M30.8593 60.9374 C21.0937 60.9374 15.7226 66.1132 15.7226 76.2695 L15.7226 166.6991 C15.7226 176.8553 21.0937 182.1287 30.8593 182.1287 L163.7694 182.1287 C173.4373 182.1287 179.0037 176.8553 179.0037 166.6991 L179.0037 76.2695 C179.0037 66.1132 173.4373 60.9374 163.7694 60.9374 Z M78.9062 0 L212.3045 0 C232.617 0 242.9685 10.1562 242.9685 30.2734 L242.9685 122.3632 C242.9685 142.4803 232.617 152.6366 212.3045 152.6366 L78.9062 152.6366 C58.3984 152.6366 48.2421 142.4803 48.2421 122.3632 L48.2421 30.2734 C48.2421 10.0586 58.3984 0 78.9062 0 Z M117.871 77.7343 C129.1991 77.7343 138.4764 87.2069 138.4764 98.6327 C138.4764 109.8632 129.1991 119.3358 117.871 119.3358 C106.4452 119.3358 97.1679 109.8632 97.1679 98.6327 C97.1679 87.2069 106.4452 77.7343 117.871 77.7343 Z M79.1991 5.1758 L209.9607 5.1758 C226.9529 5.1758 236.0349 13.7695 236.0349 30.8593 L236.0349 37.1093 L190.7225 79.8827 C186.9139 83.3984 182.2264 85.1562 177.5389 85.1562 C172.6561 85.1562 168.3592 83.5937 164.3553 79.9804 L124.9022 45.0195 L109.1796 59.1796 C105.4686 62.5976 101.4647 64.1601 97.2655 64.1601 C93.4569 64.1601 89.8437 62.5976 86.0351 59.3749 L53.1249 30.7617 C53.1249 13.7695 62.207 5.1758 79.1991 5.1758 Z M78.9062 0 L212.3045 0 C232.617 0 242.9685 10.1562 242.9685 30.2734 L242.9685 122.3632 C242.9685 142.4803 232.617 152.6366 212.3045 152.6366 L78.9062 152.6366 C58.3984 152.6366 48.2421 142.4803 48.2421 122.3632 L48.2421 30.2734 C48.2421 10.0586 58.3984 0 78.9062 0 Z M79.1015 15.7226 C69.3359 15.7226 63.9648 20.8984 63.9648 31.0547 L63.9648 121.4843 C63.9648 131.6405 69.3359 136.9139 79.1015 136.9139 L212.0115 136.9139 C221.6795 136.9139 227.2459 131.6405 227.2459 121.4843 L227.2459 31.0547 C227.2459 20.8984 221.6795 15.7226 212.0115 15.7226 Z" fill="black"/></g></svg>
