<svg xmlns="http://www.w3.org/2000/svg" viewBox="0 0 242.1873 209.3748"><path fill-rule="evenodd" d="M 40.9179 209.3748 L 123.4374 209.3748 C 149.7069 209.3748 164.2577 194.824 164.2577 168.5545 L 164.2577 40.9179 C 164.2577 14.6484 149.7069 0 123.4374 0 L 40.9179 0 C 14.6484 0 0 14.6484 0 40.9179 L 0 168.5545 C 0 194.824 14.6484 209.3748 40.9179 209.3748 Z M 40.8203 193.6522 C 24.8047 193.6522 15.7226 184.6678 15.7226 168.5545 L 15.7226 40.8203 C 15.7226 24.8047 24.8047 15.7226 40.8203 15.7226 L 123.4374 15.7226 C 139.5506 15.7226 148.535 24.8047 148.535 40.8203 L 148.535 168.5545 C 148.535 184.6678 139.5506 193.6522 123.4374 193.6522 Z M 91.4062 130.7616 L 216.3084 130.7616 C 230.4685 130.7616 242.1873 118.9452 242.1873 104.6874 C 242.1873 90.4296 230.4685 78.6132 216.3084 78.6132 L 91.4062 78.6132 C 77.246 78.6132 65.5273 90.4296 65.5273 104.6874 C 65.5273 118.9452 77.246 130.7616 91.4062 130.7616 Z M 83.8866 104.6874 C 83.8866 108.8866 87.3046 112.4022 91.4062 112.4022 L 190.8201 112.4022 L 217.0896 111.2304 C 220.7029 111.0351 223.6326 108.3007 223.6326 104.6874 C 223.6326 101.0741 220.7029 98.3398 217.0896 98.1444 L 190.8201 96.8749 L 91.4062 96.8749 C 87.3046 96.8749 83.8866 100.4882 83.8866 104.6874 Z M 181.1522 71.582 C 181.1522 73.4374 181.9334 75.5859 183.4959 76.9531 L 199.6092 91.9921 L 213.0857 104.6874 L 199.6092 117.285 L 183.4959 132.4218 C 181.9334 133.7889 181.1522 135.8397 181.1522 137.6952 C 181.1522 141.6991 184.0819 144.8241 188.0858 144.8241 C 190.1365 144.8241 191.699 143.9452 193.1639 142.4803 L 224.2185 110.3515 C 226.1717 108.3983 226.8552 106.6405 226.8552 104.6874 C 226.8552 102.6366 226.1717 100.9765 224.2185 99.0233 L 193.1639 66.7968 C 191.699 65.332 190.1365 64.5507 188.0858 64.5507 C 184.0819 64.5507 181.1522 67.4804 181.1522 71.582 Z" fill="black"/></svg>
