<svg xmlns="http://www.w3.org/2000/svg" viewBox="0 0 179.9803 204.0037"><path fill-rule="nonzero" d="M172.0701 70.8984 C176.4647 70.8984 179.9803 74.414 179.9803 78.7109 L179.9803 125.2928 C179.9803 129.5897 176.4647 133.203 172.0701 133.203 C167.578 133.203 164.2577 129.5897 164.2577 125.2928 L164.2577 78.7109 C164.2577 74.414 167.578 70.8984 172.0701 70.8984 Z M139.2577 21.6797 C143.6522 21.6797 147.0702 25.1953 147.0702 29.4922 L147.0702 174.5115 C147.0702 178.8084 143.6522 182.4217 139.2577 182.4217 C134.6678 182.4217 131.3475 178.8084 131.3475 174.5115 L131.3475 29.4922 C131.3475 25.1953 134.6678 21.6797 139.2577 21.6797 Z M106.3476 51.2695 C110.8397 51.2695 114.2577 54.6874 114.2577 59.082 L114.2577 144.9217 C114.2577 149.3163 110.8397 152.8319 106.3476 152.8319 C101.8554 152.8319 98.5351 149.3163 98.5351 144.9217 L98.5351 59.082 C98.5351 54.6874 101.8554 51.2695 106.3476 51.2695 Z M73.4374 0 C77.9296 0 81.4452 3.5156 81.4452 7.9101 L81.4452 196.0936 C81.4452 200.4881 77.9296 204.0037 73.4374 204.0037 C69.0429 204.0037 65.7226 200.4881 65.7226 196.0936 L65.7226 7.9101 C65.7226 3.5156 69.0429 0 73.4374 0 Z M40.625 39.3554 C45.1171 39.3554 48.5351 42.8711 48.5351 47.2656 L48.5351 156.7381 C48.5351 161.1327 45.1171 164.7459 40.625 164.7459 C36.2304 164.7459 32.8125 161.1327 32.8125 156.7381 L32.8125 47.2656 C32.8125 42.8711 36.2304 39.3554 40.625 39.3554 Z M7.7148 79.2968 C12.3047 79.2968 15.7226 82.8124 15.7226 87.2069 L15.7226 116.7968 C15.7226 121.1913 12.3047 124.8046 7.7148 124.8046 C3.3203 124.8046 0 121.1913 0 116.7968 L0 87.2069 C0 82.8124 3.3203 79.2968 7.7148 79.2968 Z" fill="black"/></svg>